<svg width="86" height="22" viewBox="0 0 86 22" fill="none" xmlns="http://www.w3.org/2000/svg">
<g filter="url(#filter0_d)">
<path d="M12.119 9.508H7.47504L6.21504 13H4.73904L9.50904 0.202H10.193L14.981 13H13.415L12.119 9.508ZM7.96104 8.212H11.669L10.265 4.378L9.81504 2.47H9.79704L9.34704 4.414L7.96104 8.212ZM18.0943 0.526C18.5503 0.441999 19.0723 0.375999 19.6603 0.327999C20.2603 0.28 20.8063 0.256 21.2983 0.256C21.8503 0.256 22.3723 0.316 22.8643 0.436C23.3683 0.556 23.8063 0.754 24.1783 1.03C24.5623 1.306 24.8683 1.666 25.0963 2.11C25.3243 2.554 25.4383 3.094 25.4383 3.73C25.4383 4.714 25.1683 5.512 24.6283 6.124C24.0883 6.736 23.4043 7.144 22.5763 7.348L23.4403 8.014L26.5723 13H24.8263L21.3523 7.564L19.5883 7.294V13H18.0943V0.526ZM21.3343 1.552C21.1783 1.552 21.0163 1.552 20.8483 1.552C20.6803 1.552 20.5183 1.558 20.3623 1.57C20.2063 1.582 20.0563 1.594 19.9123 1.606C19.7803 1.618 19.6723 1.636 19.5883 1.66V6.304H20.9923C21.8203 6.304 22.5043 6.1 23.0443 5.692C23.5843 5.284 23.8543 4.648 23.8543 3.784C23.8543 3.136 23.6323 2.602 23.1883 2.182C22.7443 1.762 22.1263 1.552 21.3343 1.552ZM37.2856 1.732H33.3616V13H31.8676V1.732H27.9436V0.399999H37.2856V1.732ZM38.5942 7.15H42.9502V8.482H38.5942V7.15ZM46.4666 6.7C46.4666 4.6 46.9106 2.992 47.7986 1.876C48.6866 0.748 49.9526 0.184 51.5966 0.184C52.4846 0.184 53.2526 0.34 53.9006 0.651999C54.5486 0.963999 55.0826 1.408 55.5026 1.984C55.9346 2.548 56.2526 3.232 56.4566 4.036C56.6606 4.828 56.7626 5.716 56.7626 6.7C56.7626 8.8 56.3126 10.414 55.4126 11.542C54.5246 12.658 53.2526 13.216 51.5966 13.216C50.7206 13.216 49.9586 13.06 49.3106 12.748C48.6746 12.436 48.1406 11.998 47.7086 11.434C47.2886 10.858 46.9766 10.174 46.7726 9.382C46.5686 8.578 46.4666 7.684 46.4666 6.7ZM48.0506 6.7C48.0506 7.396 48.1166 8.056 48.2486 8.68C48.3926 9.304 48.6086 9.856 48.8966 10.336C49.1846 10.804 49.5506 11.182 49.9946 11.47C50.4506 11.746 50.9846 11.884 51.5966 11.884C52.7126 11.884 53.5886 11.464 54.2246 10.624C54.8606 9.772 55.1786 8.464 55.1786 6.7C55.1786 6.016 55.1066 5.362 54.9626 4.738C54.8306 4.102 54.6146 3.55 54.3146 3.082C54.0266 2.602 53.6546 2.224 53.1986 1.948C52.7546 1.66 52.2206 1.516 51.5966 1.516C50.4926 1.516 49.6226 1.942 48.9866 2.794C48.3626 3.634 48.0506 4.936 48.0506 6.7ZM63.0012 4.756L62.0292 2.938H61.9572L62.1372 4.756V13H60.7332V0.202H61.5252L67.5552 8.608L68.4912 10.336H68.5812L68.3832 8.608V0.399999H69.7872V13.198H68.9952L63.0012 4.756ZM74.2846 0.399999H81.1426V1.732H75.7786V5.854H80.6926V7.186H75.7786V11.668H81.2326V13H74.2846V0.399999Z" fill="black"/>
</g>
<defs>
<filter id="filter0_d" x="0.739014" y="0.184082" width="84.4935" height="21.032" filterUnits="userSpaceOnUse" color-interpolation-filters="sRGB">
<feFlood flood-opacity="0" result="BackgroundImageFix"/>
<feColorMatrix in="SourceAlpha" type="matrix" values="0 0 0 0 0 0 0 0 0 0 0 0 0 0 0 0 0 0 127 0"/>
<feOffset dy="4"/>
<feGaussianBlur stdDeviation="2"/>
<feColorMatrix type="matrix" values="0 0 0 0 0 0 0 0 0 0 0 0 0 0 0 0 0 0 0.25 0"/>
<feBlend mode="normal" in2="BackgroundImageFix" result="effect1_dropShadow"/>
<feBlend mode="normal" in="SourceGraphic" in2="effect1_dropShadow" result="shape"/>
</filter>
</defs>
</svg>
