<svg xmlns="http://www.w3.org/2000/svg">
  <symbol id="menuOpen" viewBox="0 0 37 22">
    <path d="M1.15622 1.94369H35.8438C36.4821 1.94369 37 1.50826 37 0.971845C37 0.435351 36.482 0 35.8438 0H1.15622C0.518042 0 0 0.435351 0 0.971845C0 1.50834 0.518042 1.94369 1.15622 1.94369Z" fill="#868686"/>
    <path d="M35.8438 9.71875H1.15622C0.517946 9.71875 0 10.1542 0 10.6906C0 11.227 0.518042 11.6624 1.15622 11.6624H35.8438C36.4821 11.6624 37 11.227 37 10.6906C37 10.1542 36.4821 9.71875 35.8438 9.71875Z" fill="#868686"/>
    <path d="M35.8438 19.4375H1.15622C0.517946 19.4375 0 19.8729 0 20.4093C0 20.9458 0.518042 21.3812 1.15622 21.3812H35.8438C36.4821 21.3812 37 20.9458 37 20.4093C37.0001 19.8729 36.4821 19.4375 35.8438 19.4375Z" fill="#868686"/>
  </symbol>
  <symbol id="menuClose" viewBox="0 0 25 25">
    <line x1="1.00007" y1="24.1476" x2="24.1515" y2="0.999929" stroke="#868686" stroke-width="1.2" stroke-linecap="round" stroke-linejoin="round"/>
    <line x1="0.848528" y1="1" x2="23.998" y2="24.1495" stroke="#868686" stroke-width="1.2" stroke-linecap="round" stroke-linejoin="round"/>
  </symbol>
  <symbol id="phone" viewBox="0 0 25 25">
    <g clip-path="url(#clip0)" fill="currentcolor">
    <path d="M19.7579 15.4868C19.2461 14.9539 18.6287 14.669 17.9745 14.669C17.3255 14.669 16.7028 14.9487 16.1699 15.4816L14.5026 17.1436C14.3654 17.0698 14.2282 17.0012 14.0963 16.9326C13.9063 16.8376 13.7269 16.7479 13.5739 16.6529C12.0121 15.661 10.5927 14.3682 9.23143 12.6956C8.57187 11.8619 8.12865 11.1602 7.80679 10.4479C8.23946 10.0521 8.64047 9.64057 9.03092 9.24484C9.17866 9.0971 9.3264 8.94408 9.47414 8.79634C10.5822 7.68829 10.5822 6.25311 9.47414 5.14506L8.03368 3.7046C7.87011 3.54103 7.70126 3.37218 7.54297 3.20334C7.22639 2.8762 6.89397 2.53851 6.551 2.22192C6.03919 1.71539 5.42713 1.44629 4.7834 1.44629C4.13968 1.44629 3.51706 1.71539 2.98942 2.22192C2.98414 2.2272 2.98414 2.2272 2.97887 2.23248L1.18488 4.04229C0.509502 4.71767 0.124323 5.54079 0.0399002 6.49582C-0.0867339 8.03654 0.367038 9.47173 0.715282 10.4109C1.57006 12.7167 2.84696 14.8537 4.75174 17.1436C7.06282 19.9032 9.84349 22.0824 13.0199 23.6178C14.2335 24.1929 15.8533 24.8736 17.6631 24.9897C17.774 24.995 17.89 25.0002 17.9956 25.0002C19.2144 25.0002 20.238 24.5623 21.0401 23.6917C21.0453 23.6811 21.0559 23.6759 21.0612 23.6653C21.3355 23.3329 21.6521 23.0321 21.9845 22.7103C22.2114 22.4939 22.4436 22.267 22.6705 22.0296C23.1928 21.4861 23.4672 20.853 23.4672 20.204C23.4672 19.5497 23.1876 18.9218 22.6546 18.3942L19.7579 15.4868ZM21.6468 21.0429C21.6416 21.0429 21.6416 21.0482 21.6468 21.0429C21.4411 21.2645 21.23 21.465 21.0031 21.6866C20.6602 22.0138 20.3119 22.3567 19.9848 22.7419C19.4519 23.3118 18.824 23.5809 18.0008 23.5809C17.9217 23.5809 17.8373 23.5809 17.7581 23.5756C16.191 23.4753 14.7347 22.8633 13.6425 22.3409C10.6561 20.8952 8.03368 18.8426 5.85452 16.2414C4.05526 14.0728 2.85223 12.0677 2.05549 9.91494C1.56479 8.60112 1.38539 7.57749 1.46453 6.61191C1.5173 5.99456 1.75474 5.48275 2.19268 5.04481L3.99194 3.24555C4.25048 3.00283 4.52486 2.87092 4.79396 2.87092C5.12637 2.87092 5.39547 3.07143 5.56431 3.24027C5.56959 3.24555 5.57487 3.25083 5.58014 3.2561C5.902 3.55686 6.20804 3.86817 6.5299 4.20058C6.69347 4.36943 6.86231 4.53827 7.03116 4.71239L8.47162 6.15286C9.03092 6.71216 9.03092 7.22925 8.47162 7.78855C8.3186 7.94156 8.17086 8.09458 8.01785 8.24232C7.57463 8.69609 7.15252 9.11821 6.69347 9.52977C6.68291 9.54032 6.67236 9.5456 6.66708 9.55615C6.21331 10.0099 6.29774 10.4531 6.39271 10.7539C6.39799 10.7697 6.40326 10.7856 6.40854 10.8014C6.78317 11.7089 7.31081 12.5637 8.11282 13.5821L8.1181 13.5873C9.57439 15.3813 11.1098 16.7796 12.8036 17.8507C13.0199 17.9879 13.2415 18.0987 13.4526 18.2042C13.6425 18.2992 13.8219 18.3889 13.9749 18.4839C13.996 18.4944 14.0171 18.5102 14.0382 18.5208C14.2176 18.6105 14.3865 18.6527 14.5606 18.6527C14.9986 18.6527 15.2729 18.3783 15.3626 18.2886L17.1672 16.4841C17.3466 16.3047 17.6315 16.0884 17.9639 16.0884C18.291 16.0884 18.5601 16.2941 18.7237 16.4735C18.729 16.4788 18.729 16.4788 18.7343 16.4841L21.6416 19.3914C22.185 19.9296 22.185 20.4836 21.6468 21.0429Z"/>
    <path d="M13.5106 5.94676C14.8931 6.17892 16.1489 6.83319 17.1514 7.83571C18.1539 8.83823 18.8029 10.094 19.0403 11.4764C19.0984 11.8247 19.3991 12.0674 19.7421 12.0674C19.7843 12.0674 19.8212 12.0621 19.8635 12.0569C20.2539 11.9935 20.5125 11.6242 20.4491 11.2337C20.1642 9.5611 19.3727 8.03622 18.1644 6.82792C16.9561 5.61962 15.4313 4.82815 13.7586 4.54323C13.3682 4.47991 13.0041 4.73846 12.9355 5.12363C12.8669 5.50881 13.1202 5.88344 13.5106 5.94676Z"/>
    <path d="M24.971 11.028C24.5014 8.27374 23.2034 5.76744 21.2089 3.77295C19.2144 1.77846 16.7081 0.480461 13.9538 0.0108597C13.5687 -0.0577338 13.2046 0.206087 13.136 0.591266C13.0727 0.981721 13.3312 1.34579 13.7217 1.41439C16.1805 1.83122 18.423 2.99731 20.2064 4.77547C21.9898 6.5589 23.1506 8.80138 23.5675 11.2602C23.6255 11.6084 23.9263 11.8511 24.2692 11.8511C24.3115 11.8511 24.3484 11.8459 24.3906 11.8406C24.7758 11.7826 25.0396 11.4132 24.971 11.028Z"/>
    </g>
    <defs>
    <clipPath id="clip0">
    <rect width="25" height="25"/>
    </clipPath>
    </defs>
  </symbol>
  <symbol id="message" viewBox="0 0 25 21">
    <path fill="currentcolor" d="M21.9481 0.987305H3.05711C1.37078 0.987305 0 2.35809 0 4.04441V16.9557C0 18.642 1.37078 20.0128 3.05711 20.0128H21.9429C23.6292 20.0128 25 18.642 25 16.9557V4.04959C25.0052 2.36326 23.6344 0.987305 21.9481 0.987305ZM23.6085 16.9557C23.6085 17.8712 22.8636 18.6161 21.9481 18.6161H3.05711C2.14153 18.6161 1.39665 17.8712 1.39665 16.9557V4.04959C1.39665 3.134 2.14153 2.38913 3.05711 2.38913H21.9429C22.8585 2.38913 23.6034 3.134 23.6034 4.04959V16.9557H23.6085Z"/>
    <path fill="currentcolor" d="M15.7666 10.3397L21.8808 4.85654C22.1653 4.5979 22.1912 4.15821 21.9325 3.86854C21.6739 3.58404 21.2342 3.55817 20.9445 3.81681L12.5129 11.3846L10.868 9.91551C10.8628 9.91034 10.8576 9.90516 10.8576 9.89999C10.8214 9.86378 10.7852 9.83274 10.7438 9.80171L4.05025 3.81164C3.76057 3.553 3.32089 3.57886 3.06225 3.86854C2.80361 4.15821 2.82947 4.5979 3.11915 4.85654L9.30578 10.3862L3.14501 16.1539C2.86568 16.4177 2.85017 16.8574 3.11398 17.1419C3.25364 17.2867 3.43986 17.3643 3.62608 17.3643C3.79678 17.3643 3.96748 17.3022 4.10198 17.1781L10.3559 11.3277L12.0525 12.8433C12.187 12.9623 12.3525 13.0192 12.5181 13.0192C12.6836 13.0192 12.8543 12.9571 12.9836 12.8381L14.7268 11.2759L20.9445 17.1833C21.079 17.3126 21.2549 17.3746 21.4256 17.3746C21.6118 17.3746 21.7929 17.3022 21.9325 17.1574C22.1963 16.8781 22.186 16.4332 21.9067 16.1694L15.7666 10.3397Z"/>
  </symbol>
  <symbol id="logoDesktop" viewBox="0 0 275 237">
    <g filter="url(#filter0_f)">
      <path d="M141.561 229.337C139.628 232.627 134.871 232.627 132.938 229.337L4.42398 10.5323C2.46625 7.19907 4.86972 3 8.73532 3L265.764 3C269.63 3 272.033 7.19907 270.075 10.5323L141.561 229.337Z" fill="url(#paint0_linear)" fill-opacity="0.85"/>
    </g>
    <path d="M88.8824 90.568H81.6584L79.6984 96H77.4024L84.8224 76.092H85.8864L93.3344 96H90.8984L88.8824 90.568ZM82.4144 88.552H88.1824L85.9984 82.588L85.2984 79.62H85.2704L84.5704 82.644L82.4144 88.552ZM98.1773 76.596C98.8867 76.4653 99.6987 76.3627 100.613 76.288C101.547 76.2133 102.396 76.176 103.161 76.176C104.02 76.176 104.832 76.2693 105.597 76.456C106.381 76.6427 107.063 76.9507 107.641 77.38C108.239 77.8093 108.715 78.3693 109.069 79.06C109.424 79.7507 109.601 80.5907 109.601 81.58C109.601 83.1107 109.181 84.352 108.341 85.304C107.501 86.256 106.437 86.8907 105.149 87.208L106.493 88.244L111.365 96H108.649L103.245 87.544L100.501 87.124V96H98.1773V76.596ZM103.217 78.192C102.975 78.192 102.723 78.192 102.461 78.192C102.2 78.192 101.948 78.2013 101.705 78.22C101.463 78.2387 101.229 78.2573 101.005 78.276C100.8 78.2947 100.632 78.3227 100.501 78.36V85.584H102.685C103.973 85.584 105.037 85.2667 105.877 84.632C106.717 83.9973 107.137 83.008 107.137 81.664C107.137 80.656 106.792 79.8253 106.101 79.172C105.411 78.5187 104.449 78.192 103.217 78.192ZM128.03 78.472H121.926V96H119.602V78.472H113.498V76.4H128.03V78.472ZM140.917 86.2C140.917 82.9333 141.608 80.432 142.989 78.696C144.371 76.9413 146.34 76.064 148.897 76.064C150.279 76.064 151.473 76.3067 152.481 76.792C153.489 77.2773 154.32 77.968 154.973 78.864C155.645 79.7413 156.14 80.8053 156.457 82.056C156.775 83.288 156.933 84.6693 156.933 86.2C156.933 89.4667 156.233 91.9773 154.833 93.732C153.452 95.468 151.473 96.336 148.897 96.336C147.535 96.336 146.349 96.0933 145.341 95.608C144.352 95.1227 143.521 94.4413 142.849 93.564C142.196 92.668 141.711 91.604 141.393 90.372C141.076 89.1213 140.917 87.7307 140.917 86.2ZM143.381 86.2C143.381 87.2827 143.484 88.3093 143.689 89.28C143.913 90.2507 144.249 91.1093 144.697 91.856C145.145 92.584 145.715 93.172 146.405 93.62C147.115 94.0493 147.945 94.264 148.897 94.264C150.633 94.264 151.996 93.6107 152.985 92.304C153.975 90.9787 154.469 88.944 154.469 86.2C154.469 85.136 154.357 84.1187 154.133 83.148C153.928 82.1587 153.592 81.3 153.125 80.572C152.677 79.8253 152.099 79.2373 151.389 78.808C150.699 78.36 149.868 78.136 148.897 78.136C147.18 78.136 145.827 78.7987 144.837 80.124C143.867 81.4307 143.381 83.456 143.381 86.2ZM166.638 83.176L165.126 80.348H165.014L165.294 83.176V96H163.11V76.092H164.342L173.722 89.168L175.178 91.856H175.318L175.01 89.168V76.4H177.194V96.308H175.962L166.638 83.176ZM184.19 76.4H194.858V78.472H186.514V84.884H194.158V86.956H186.514V93.928H194.998V96H184.19V76.4Z" fill="white"/>
    <defs>
    <filter id="filter0_f" x="0.727783" y="0" width="273.044" height="234.805" filterUnits="userSpaceOnUse" color-interpolation-filters="sRGB">
    <feFlood flood-opacity="0" result="BackgroundImageFix"/>
    <feBlend mode="normal" in="SourceGraphic" in2="BackgroundImageFix" result="shape"/>
    <feGaussianBlur stdDeviation="1.5" result="effect1_foregroundBlur"/>
    </filter>
    <linearGradient id="paint0_linear" x1="137.25" y1="236.678" x2="137.25" y2="3" gradientUnits="userSpaceOnUse">
    <stop offset="0.1875" stop-color="#646464" stop-opacity="0.953125"/>
    <stop offset="0.46875" stop-color="#646464" stop-opacity="0.89"/>
    <stop offset="0.755208" stop-color="#C4C4C4"/>
    <stop offset="1" stop-color="#C4C4C4" stop-opacity="0"/>
    </linearGradient>
    </defs>
  </symbol>

</svg>
