<svg width="275" height="237" viewBox="0 0 275 237" fill="none" xmlns="http://www.w3.org/2000/svg">
<g filter="url(#filter0_f)">
<path d="M141.561 229.337C139.628 232.627 134.871 232.627 132.938 229.337L4.42398 10.5323C2.46625 7.19907 4.86972 3 8.73532 3L265.764 3C269.63 3 272.033 7.19907 270.075 10.5323L141.561 229.337Z" fill="url(#paint0_linear)" fill-opacity="0.85"/>
</g>
<path d="M88.8824 90.568H81.6584L79.6984 96H77.4024L84.8224 76.092H85.8864L93.3344 96H90.8984L88.8824 90.568ZM82.4144 88.552H88.1824L85.9984 82.588L85.2984 79.62H85.2704L84.5704 82.644L82.4144 88.552ZM98.1773 76.596C98.8867 76.4653 99.6987 76.3627 100.613 76.288C101.547 76.2133 102.396 76.176 103.161 76.176C104.02 76.176 104.832 76.2693 105.597 76.456C106.381 76.6427 107.063 76.9507 107.641 77.38C108.239 77.8093 108.715 78.3693 109.069 79.06C109.424 79.7507 109.601 80.5907 109.601 81.58C109.601 83.1107 109.181 84.352 108.341 85.304C107.501 86.256 106.437 86.8907 105.149 87.208L106.493 88.244L111.365 96H108.649L103.245 87.544L100.501 87.124V96H98.1773V76.596ZM103.217 78.192C102.975 78.192 102.723 78.192 102.461 78.192C102.2 78.192 101.948 78.2013 101.705 78.22C101.463 78.2387 101.229 78.2573 101.005 78.276C100.8 78.2947 100.632 78.3227 100.501 78.36V85.584H102.685C103.973 85.584 105.037 85.2667 105.877 84.632C106.717 83.9973 107.137 83.008 107.137 81.664C107.137 80.656 106.792 79.8253 106.101 79.172C105.411 78.5187 104.449 78.192 103.217 78.192ZM128.03 78.472H121.926V96H119.602V78.472H113.498V76.4H128.03V78.472ZM140.917 86.2C140.917 82.9333 141.608 80.432 142.989 78.696C144.371 76.9413 146.34 76.064 148.897 76.064C150.279 76.064 151.473 76.3067 152.481 76.792C153.489 77.2773 154.32 77.968 154.973 78.864C155.645 79.7413 156.14 80.8053 156.457 82.056C156.775 83.288 156.933 84.6693 156.933 86.2C156.933 89.4667 156.233 91.9773 154.833 93.732C153.452 95.468 151.473 96.336 148.897 96.336C147.535 96.336 146.349 96.0933 145.341 95.608C144.352 95.1227 143.521 94.4413 142.849 93.564C142.196 92.668 141.711 91.604 141.393 90.372C141.076 89.1213 140.917 87.7307 140.917 86.2ZM143.381 86.2C143.381 87.2827 143.484 88.3093 143.689 89.28C143.913 90.2507 144.249 91.1093 144.697 91.856C145.145 92.584 145.715 93.172 146.405 93.62C147.115 94.0493 147.945 94.264 148.897 94.264C150.633 94.264 151.996 93.6107 152.985 92.304C153.975 90.9787 154.469 88.944 154.469 86.2C154.469 85.136 154.357 84.1187 154.133 83.148C153.928 82.1587 153.592 81.3 153.125 80.572C152.677 79.8253 152.099 79.2373 151.389 78.808C150.699 78.36 149.868 78.136 148.897 78.136C147.18 78.136 145.827 78.7987 144.837 80.124C143.867 81.4307 143.381 83.456 143.381 86.2ZM166.638 83.176L165.126 80.348H165.014L165.294 83.176V96H163.11V76.092H164.342L173.722 89.168L175.178 91.856H175.318L175.01 89.168V76.4H177.194V96.308H175.962L166.638 83.176ZM184.19 76.4H194.858V78.472H186.514V84.884H194.158V86.956H186.514V93.928H194.998V96H184.19V76.4Z" fill="white"/>
<defs>
<filter id="filter0_f" x="0.727783" y="0" width="273.044" height="234.805" filterUnits="userSpaceOnUse" color-interpolation-filters="sRGB">
<feFlood flood-opacity="0" result="BackgroundImageFix"/>
<feBlend mode="normal" in="SourceGraphic" in2="BackgroundImageFix" result="shape"/>
<feGaussianBlur stdDeviation="1.5" result="effect1_foregroundBlur"/>
</filter>
<linearGradient id="paint0_linear" x1="137.25" y1="236.678" x2="137.25" y2="3" gradientUnits="userSpaceOnUse">
<stop offset="0.1875" stop-opacity="0.953125"/>
<stop offset="0.46875" stop-color="#646464" stop-opacity="0.89"/>
<stop offset="0.755208" stop-color="#C4C4C4"/>
<stop offset="1" stop-color="#C4C4C4" stop-opacity="0"/>
</linearGradient>
</defs>
</svg>
