<svg width="37" height="22" viewBox="0 0 37 22" fill="none" xmlns="http://www.w3.org/2000/svg">
<path d="M1.15622 1.94369H35.8438C36.4821 1.94369 37 1.50826 37 0.971845C37 0.435351 36.482 0 35.8438 0H1.15622C0.518042 0 0 0.435351 0 0.971845C0 1.50834 0.518042 1.94369 1.15622 1.94369Z" fill="#868686"/>
<path d="M35.8438 9.71875H1.15622C0.517946 9.71875 0 10.1542 0 10.6906C0 11.227 0.518042 11.6624 1.15622 11.6624H35.8438C36.4821 11.6624 37 11.227 37 10.6906C37 10.1542 36.4821 9.71875 35.8438 9.71875Z" fill="#868686"/>
<path d="M35.8438 19.4375H1.15622C0.517946 19.4375 0 19.8729 0 20.4093C0 20.9458 0.518042 21.3812 1.15622 21.3812H35.8438C36.4821 21.3812 37 20.9458 37 20.4093C37.0001 19.8729 36.4821 19.4375 35.8438 19.4375Z" fill="#868686"/>
</svg>
