<svg width="25" height="21" viewBox="0 0 25 21" fill="none" xmlns="http://www.w3.org/2000/svg">
<path d="M21.9481 0.987305H3.05711C1.37078 0.987305 0 2.35809 0 4.04441V16.9557C0 18.642 1.37078 20.0128 3.05711 20.0128H21.9429C23.6292 20.0128 25 18.642 25 16.9557V4.04959C25.0052 2.36326 23.6344 0.987305 21.9481 0.987305ZM23.6085 16.9557C23.6085 17.8712 22.8636 18.6161 21.9481 18.6161H3.05711C2.14153 18.6161 1.39665 17.8712 1.39665 16.9557V4.04959C1.39665 3.134 2.14153 2.38913 3.05711 2.38913H21.9429C22.8585 2.38913 23.6034 3.134 23.6034 4.04959V16.9557H23.6085Z" fill="black"/>
<path d="M15.7666 10.3397L21.8808 4.85654C22.1653 4.5979 22.1912 4.15821 21.9325 3.86854C21.6739 3.58404 21.2342 3.55817 20.9445 3.81681L12.5129 11.3846L10.868 9.91551C10.8628 9.91034 10.8576 9.90516 10.8576 9.89999C10.8214 9.86378 10.7852 9.83274 10.7438 9.80171L4.05025 3.81164C3.76057 3.553 3.32089 3.57886 3.06225 3.86854C2.80361 4.15821 2.82947 4.5979 3.11915 4.85654L9.30578 10.3862L3.14501 16.1539C2.86568 16.4177 2.85017 16.8574 3.11398 17.1419C3.25364 17.2867 3.43986 17.3643 3.62608 17.3643C3.79678 17.3643 3.96748 17.3022 4.10198 17.1781L10.3559 11.3277L12.0525 12.8433C12.187 12.9623 12.3525 13.0192 12.5181 13.0192C12.6836 13.0192 12.8543 12.9571 12.9836 12.8381L14.7268 11.2759L20.9445 17.1833C21.079 17.3126 21.2549 17.3746 21.4256 17.3746C21.6118 17.3746 21.7929 17.3022 21.9325 17.1574C22.1963 16.8781 22.186 16.4332 21.9067 16.1694L15.7666 10.3397Z" fill="black"/>
</svg>
